<?xml version="1.0" standalone="no"?>
<!DOCTYPE svg PUBLIC "-//W3C//DTD SVG 20010904//EN"
 "http://www.w3.org/TR/2001/REC-SVG-20010904/DTD/svg10.dtd">
<svg version="1.0" xmlns="http://www.w3.org/2000/svg"
 width="1516.000000pt" height="1516.000000pt" viewBox="0 0 1516.000000 1516.000000"
 preserveAspectRatio="xMidYMid meet">
<metadata>
Created by potrace 1.11, written by Peter Selinger 2001-2013
</metadata>
<g transform="translate(0.000000,1516.000000) scale(0.100000,-0.100000)"
fill="#000000" stroke="none">
<path d="M7140 15050 c-810 -52 -1589 -226 -2323 -519 -1700 -678 -3104 -1968
-3927 -3611 -890 -1777 -1033 -3870 -391 -5760 745 -2199 2478 -3934 4677
-4683 650 -222 1298 -346 2014 -388 253 -14 796 -6 1040 16 1623 146 3077 765
4302 1832 158 137 554 533 691 691 909 1044 1505 2282 1742 3617 85 482 109
772 109 1325 0 465 -7 600 -55 975 -144 1130 -558 2231 -1202 3195 -828 1239
-2051 2231 -3425 2781 -703 282 -1381 443 -2162 515 -204 18 -880 27 -1090 14z
m912 -200 c1376 -92 2651 -545 3765 -1337 331 -235 626 -486 928 -788 810
-809 1402 -1764 1761 -2840 206 -617 317 -1186 364 -1855 13 -187 13 -733 0
-920 -115 -1658 -731 -3136 -1829 -4385 -139 -159 -464 -482 -626 -624 -1121
-982 -2488 -1597 -3935 -1770 -341 -41 -437 -46 -900 -46 -463 1 -573 7 -920
51 -1313 166 -2582 705 -3620 1538 -373 299 -794 715 -1092 1080 -1224 1497
-1802 3410 -1612 5336 267 2712 2036 5056 4577 6064 709 282 1463 448 2262
499 127 8 739 6 877 -3z"/>
<path d="M6800 14068 c-80 -5 -147 -12 -149 -14 -3 -2 12 -287 32 -632 21
-345 38 -630 37 -634 0 -5 32 -8 70 -8 70 0 70 0 70 28 0 15 -7 148 -16 295
-9 147 -15 269 -13 271 2 2 49 7 104 10 l100 7 190 -283 190 -283 66 -3 c127
-6 132 -23 -92 298 -168 240 -197 286 -182 292 10 4 40 15 67 24 78 28 140 84
175 156 38 79 46 136 31 218 -20 110 -68 179 -159 224 -93 47 -201 54 -521 34z
m400 -129 c25 -8 62 -30 86 -54 34 -32 44 -51 53 -96 14 -65 8 -97 -25 -156
-19 -32 -38 -49 -87 -72 -65 -33 -134 -45 -309 -55 -97 -6 -98 -6 -99 16 0 13
-6 111 -13 218 -7 107 -11 197 -9 199 6 8 197 19 278 16 44 -1 100 -9 125 -16z"/>
<path d="M8395 14026 c-3 -12 -50 -295 -104 -631 -66 -407 -95 -612 -88 -617
14 -8 117 -21 124 -15 2 3 25 133 50 289 25 155 49 286 52 290 3 4 131 -13
284 -38 153 -25 284 -43 291 -41 11 5 31 106 22 114 -2 2 -131 24 -287 49
-156 26 -286 48 -288 50 -2 2 12 98 30 213 32 198 35 210 54 206 70 -15 606
-97 610 -94 2 3 6 32 7 64 l3 58 -378 62 c-372 60 -378 61 -382 41z"/>
<path d="M5563 13861 c-29 -8 -53 -21 -53 -27 0 -6 54 -184 119 -395 137 -439
149 -492 131 -582 -15 -76 -30 -107 -81 -162 -81 -88 -243 -128 -360 -90 -72
24 -155 107 -196 195 -17 36 -81 229 -143 430 -62 201 -116 375 -121 387 l-8
21 -62 -19 c-35 -11 -64 -21 -66 -23 -8 -8 254 -819 284 -880 47 -93 129 -178
211 -218 55 -27 79 -33 156 -36 269 -12 487 144 528 378 18 104 -1 200 -101
520 -49 157 -105 338 -125 403 -21 67 -42 117 -49 116 -7 -1 -36 -9 -64 -18z"/>
<path d="M10047 13663 c-29 -49 -332 -791 -343 -841 -11 -44 -15 -98 -12 -158
3 -81 8 -100 41 -167 45 -91 109 -152 211 -202 221 -108 413 -81 563 78 27 29
63 77 80 107 24 43 300 683 344 798 8 21 4 25 -46 48 -31 13 -61 24 -68 24 -7
0 -84 -172 -172 -382 -88 -209 -177 -407 -198 -439 -69 -106 -171 -169 -273
-169 -47 0 -148 30 -193 57 -48 30 -93 78 -119 128 -23 43 -27 62 -27 140 0
112 -2 106 190 561 85 201 155 369 155 373 0 6 -104 51 -120 51 -5 0 -11 -3
-13 -7z"/>
<path d="M3634 13096 c-128 -40 -258 -146 -310 -251 -25 -53 -29 -71 -29 -150
0 -78 4 -97 28 -147 35 -71 95 -134 155 -161 70 -33 210 -30 364 6 128 30 231
35 281 14 42 -18 101 -85 117 -132 53 -160 -96 -342 -290 -353 -59 -3 -94 4
-161 32 -12 5 -21 -8 -42 -61 -15 -37 -24 -70 -19 -74 15 -13 76 -29 135 -35
185 -18 419 111 495 273 23 50 27 70 27 153 0 85 -3 101 -28 150 -68 131 -151
190 -280 197 -56 4 -112 -3 -252 -32 -185 -37 -229 -39 -287 -9 -52 27 -98 92
-113 161 -18 88 61 213 172 268 51 26 68 30 138 28 44 -1 91 -3 103 -5 21 -3
27 5 47 59 l24 62 -31 10 c-42 15 -193 13 -244 -3z"/>
<path d="M11434 12270 c-208 -280 -379 -514 -379 -519 0 -11 89 -81 103 -81 6
0 88 105 183 233 l173 233 115 -84 c157 -115 241 -154 341 -160 112 -6 168 14
246 92 81 81 108 149 102 256 -8 139 -63 210 -305 392 -98 74 -183 137 -189
141 -6 4 -167 -204 -390 -503z m541 235 c139 -104 187 -161 206 -243 16 -74
-44 -183 -124 -221 -93 -45 -179 -20 -342 100 -60 44 -114 84 -118 88 -7 7
248 361 260 361 3 0 56 -38 118 -85z"/>
<path d="M1060 7882 c0 -18 186 -185 244 -221 155 -93 294 -119 740 -137 l169
-7 -7 -67 c-9 -96 -41 -192 -76 -230 -30 -32 -31 -33 -96 -26 l-66 7 7 -38
c25 -133 130 -200 273 -174 74 14 186 62 259 112 72 49 164 140 275 271 l98
117 78 -5 c95 -6 1766 -86 2372 -114 1520 -68 2421 -90 3745 -90 1346 0 1930
19 3055 100 974 70 1394 140 1785 297 112 45 305 150 305 166 0 4 -730 6
-1677 2 -3680 -13 -10744 -25 -10755 -19 -6 4 -130 8 -277 9 -231 2 -276 5
-341 23 -41 11 -83 23 -92 27 -10 4 -18 3 -18 -3z"/>
<path d="M6634 6736 c-66 -29 -97 -104 -70 -169 17 -42 56 -69 142 -97 73 -25
98 -49 98 -95 0 -87 -127 -123 -189 -55 -21 24 -33 24 -59 5 -19 -14 -19 -15
0 -36 32 -36 89 -59 146 -59 100 0 163 54 163 140 0 66 -26 99 -101 128 -93
35 -127 55 -143 83 -21 37 -1 82 46 104 41 20 81 15 124 -16 29 -20 31 -20 50
-3 18 16 18 18 2 37 -10 10 -30 25 -45 33 -34 18 -123 17 -164 0z"/>
<path d="M7695 6731 c-38 -23 -61 -49 -74 -83 -10 -25 -8 -28 16 -34 20 -5 30
-3 37 11 32 53 54 70 96 70 74 0 112 -74 76 -143 -8 -15 -67 -79 -130 -142
-92 -91 -116 -120 -116 -142 l0 -28 165 0 165 0 0 25 0 25 -132 0 -133 0 117
118 c64 64 121 127 127 139 6 12 11 44 11 71 0 55 -22 92 -70 117 -40 21 -118
19 -155 -4z"/>
<path d="M8094 6731 c-18 -11 -42 -40 -55 -68 -21 -43 -24 -61 -24 -173 0
-112 3 -130 24 -173 30 -62 70 -87 138 -87 44 0 58 5 87 30 53 47 71 106 71
230 0 124 -18 183 -71 230 -29 25 -43 30 -87 30 -33 0 -63 -7 -83 -19z m110
-43 c14 -6 36 -32 48 -57 19 -39 23 -62 23 -146 -1 -83 -4 -107 -22 -141 -41
-78 -113 -79 -157 -4 -18 30 -21 52 -21 150 0 126 15 172 66 197 30 16 32 16
63 1z"/>
<path d="M6160 6490 l0 -250 165 0 165 0 0 25 0 25 -135 0 -135 0 0 90 0 90
120 0 120 0 0 25 0 25 -120 0 -120 0 0 85 0 85 130 0 130 0 0 25 0 25 -160 0
-160 0 0 -250z"/>
<path d="M6890 6715 c0 -25 1 -25 85 -25 l85 0 0 -225 0 -225 30 0 30 0 0 225
0 225 85 0 c84 0 85 0 85 25 l0 25 -200 0 -200 0 0 -25z"/>
<path d="M8540 6717 c-14 -12 -41 -35 -60 -50 -26 -23 -32 -32 -24 -45 17 -26
28 -24 72 14 l42 36 0 -216 0 -216 25 0 25 0 0 250 0 250 -27 0 c-16 0 -39
-11 -53 -23z"/>
<path d="M8830 6715 l0 -24 120 -3 119 -3 -99 -219 c-55 -120 -100 -220 -100
-222 0 -2 15 -4 33 -4 l32 0 98 223 c53 122 97 234 97 250 l0 27 -150 0 -150
0 0 -25z"/>
<path d="M7285 6301 c-3 -12 -3 -30 0 -42 5 -16 14 -19 38 -17 29 3 32 6 32
38 0 32 -3 35 -32 38 -24 2 -33 -1 -38 -17z"/>
<path d="M12665 4339 c-51 -25 -79 -53 -176 -171 l-79 -97 287 -232 c159 -128
293 -236 298 -240 6 -5 22 6 38 26 l26 33 -121 99 c-67 54 -128 103 -136 109
-13 9 -6 23 42 85 68 87 82 112 96 174 34 153 -134 284 -275 214z m119 -73
c70 -29 96 -107 60 -179 -29 -56 -115 -158 -127 -150 -22 13 -182 145 -185
152 -5 14 121 152 156 171 45 23 53 24 96 6z"/>
<path d="M2549 3749 c-145 -127 -274 -241 -287 -253 l-23 -22 157 -180 c86
-98 160 -180 163 -181 3 -1 19 8 35 22 l29 23 -131 150 c-73 83 -132 152 -132
154 0 3 46 45 103 95 l103 90 119 -137 120 -138 27 22 c15 11 27 25 27 29 1 5
-51 68 -114 140 -63 72 -114 134 -113 138 5 10 179 162 182 158 4 -7 219 -253
237 -273 18 -20 19 -20 44 4 14 13 25 27 25 31 0 4 -68 86 -151 181 -84 95
-152 174 -153 175 -1 1 -121 -101 -267 -228z"/>
<path d="M12071 3762 l-44 -38 88 -289 c48 -159 91 -302 96 -318 l8 -27 -82
44 c-45 25 -176 97 -291 160 -226 124 -213 120 -275 67 -30 -26 -32 -31 -20
-48 40 -56 463 -573 468 -573 3 1 19 11 35 25 36 28 56 -4 -182 289 -100 124
-180 226 -177 226 3 0 138 -72 300 -160 262 -143 297 -159 315 -148 11 7 18
20 15 28 -45 144 -185 633 -182 636 2 2 90 -104 196 -236 107 -132 196 -240
200 -240 3 1 19 11 35 24 20 17 26 28 20 38 -19 31 -465 578 -472 578 -4 0
-27 -17 -51 -38z"/>
<path d="M3159 3063 l-212 -316 29 -24 c16 -12 32 -23 36 -23 5 0 50 63 100
140 51 77 96 140 100 140 4 0 42 -22 84 -50 76 -50 153 -80 204 -80 75 0 173
92 185 174 15 98 -32 165 -193 274 l-120 81 -213 -316z m319 148 c105 -72 138
-122 121 -183 -21 -77 -100 -114 -174 -83 -51 21 -165 95 -165 106 0 5 30 54
67 109 43 65 71 99 80 96 7 -3 39 -23 71 -45z"/>
<path d="M10970 2954 c-14 -10 -27 -19 -29 -20 -3 -3 120 -814 125 -822 1 -2
18 7 38 19 42 24 42 28 19 151 -14 77 -14 92 -2 99 8 4 81 50 163 102 l150 94
88 -63 88 -64 40 26 c22 15 39 28 38 29 -20 18 -667 459 -678 462 -8 2 -26 -4
-40 -13z m258 -234 c73 -51 130 -96 125 -100 -16 -15 -255 -161 -258 -158 -4
5 -65 361 -65 382 0 17 3 16 33 -6 17 -13 92 -66 165 -118z"/>
<path d="M3946 2626 c-92 -184 -166 -338 -162 -344 6 -11 65 -37 70 -31 6 6
336 668 336 674 0 6 -56 35 -67 35 -4 0 -84 -151 -177 -334z"/>
<path d="M4639 2617 c-66 -19 -128 -58 -181 -115 -152 -163 -156 -402 -8 -553
79 -81 149 -112 258 -117 82 -4 162 14 178 39 3 5 -4 23 -16 39 -21 30 -21 30
-53 13 -79 -42 -220 -8 -299 72 -63 63 -83 117 -83 215 0 73 4 93 28 142 35
72 98 137 162 168 69 34 179 35 247 1 63 -31 125 -94 140 -143 11 -39 12 -39
52 -32 23 3 43 8 45 10 11 10 -36 100 -76 144 -66 74 -166 120 -269 126 -47 2
-97 -1 -125 -9z"/>
<path d="M10213 2551 c-253 -92 -341 -380 -185 -611 68 -101 195 -170 311
-170 163 0 325 108 366 244 8 27 14 50 12 51 -1 1 -19 5 -39 9 -37 7 -37 6
-48 -35 -15 -55 -87 -131 -153 -160 -77 -34 -174 -33 -249 4 -111 54 -179 161
-186 293 -4 72 -1 89 20 136 50 108 152 178 261 178 32 0 71 -7 87 -15 29 -15
30 -15 50 25 l21 41 -35 14 c-50 21 -169 19 -233 -4z"/>
<path d="M6031 2078 c-98 -22 -172 -149 -142 -248 15 -52 48 -89 141 -160 123
-94 147 -138 113 -207 -55 -113 -221 -110 -294 5 -15 25 -30 49 -31 54 -2 5
-22 2 -45 -7 -41 -16 -41 -17 -30 -48 17 -51 96 -121 163 -146 86 -33 186 -27
245 14 59 42 89 102 89 180 0 83 -29 125 -144 211 -124 93 -147 139 -108 213
36 67 118 88 198 52 41 -18 94 -76 94 -101 0 -8 6 -10 18 -5 9 4 29 12 45 17
15 5 27 13 27 17 0 18 -63 93 -97 115 -39 26 -140 57 -178 55 -11 -1 -40 -6
-64 -11z"/>
<path d="M8800 2027 c-118 -27 -216 -51 -218 -52 -1 -1 36 -167 83 -369 47
-201 85 -369 85 -372 0 -5 81 5 87 10 2 2 -15 79 -37 172 -22 92 -36 171 -32
175 4 4 79 23 166 43 88 20 161 38 163 39 7 8 -11 77 -21 76 -6 0 -83 -17
-171 -38 -88 -21 -161 -38 -162 -37 -1 1 -15 56 -31 122 l-29 121 175 39 c95
21 178 42 184 45 13 8 -1 79 -16 78 -6 -1 -108 -24 -226 -52z"/>
<path d="M6727 1653 c-10 -137 -17 -264 -17 -284 0 -61 29 -138 67 -180 56
-62 103 -82 206 -87 107 -5 158 11 216 69 67 68 79 116 102 417 11 145 19 266
17 267 -2 2 -22 6 -45 10 l-43 7 0 -34 c0 -18 -9 -140 -19 -270 -21 -262 -33
-306 -95 -352 -77 -59 -189 -53 -255 13 -65 65 -70 112 -46 416 8 99 15 197
15 218 l0 37 -43 0 -43 0 -17 -247z"/>
<path d="M7846 1878 l-118 -11 5 -41 c3 -22 18 -195 33 -383 l29 -343 40 7
c22 3 42 7 44 9 2 2 -3 79 -11 171 -8 92 -14 169 -14 170 1 1 28 4 61 8 l60 6
115 -165 115 -165 40 0 c77 -1 75 4 -54 179 l-121 163 48 22 c104 49 146 150
108 258 -39 108 -132 136 -380 115z m242 -92 c63 -33 82 -121 37 -175 -31 -36
-93 -57 -197 -66 -91 -8 -84 -18 -94 142 l-7 112 59 4 c94 7 168 0 202 -17z"/>
</g>
</svg>
